<mxfile host="app.diagrams.net" modified="2021-06-30T06:50:33.886Z" agent="5.0 (Windows NT 10.0; Win64; x64) AppleWebKit/537.36 (KHTML, like Gecko) Chrome/91.0.4472.114 Safari/537.36 Edg/91.0.864.59" etag="6EfjLm4ZRz_lLi1vNSWb" version="14.8.2" type="github">
  <diagram id="EIlNaiwJNPQ5EjUz9Yl5" name="Page-1">
    <mxGraphModel dx="2467" dy="772" grid="0" gridSize="10" guides="1" tooltips="1" connect="1" arrows="0" fold="1" page="1" pageScale="1" pageWidth="827" pageHeight="1169" math="0" shadow="0">
      <root>
        <mxCell id="0" />
        <mxCell id="1" parent="0" />
        <mxCell id="Tf4VK9z_t_ga5ASDHCI5-2" value="&lt;span style=&quot;font-size: 10.5pt&quot;&gt;航班&lt;/span&gt;&lt;span lang=&quot;EN-US&quot; style=&quot;font-size: 10.5pt ; font-family: &amp;#34;times new roman&amp;#34; , serif&quot;&gt;(airflight)&lt;/span&gt;" style="rounded=0;whiteSpace=wrap;html=1;" vertex="1" parent="1">
          <mxGeometry x="310" y="190" width="120" height="60" as="geometry" />
        </mxCell>
        <mxCell id="Tf4VK9z_t_ga5ASDHCI5-3" value="&lt;span style=&quot;font-size: 10.5pt&quot;&gt;普通用户&lt;/span&gt;&lt;span lang=&quot;EN-US&quot; style=&quot;font-size: 10.5pt ; font-family: &amp;#34;times new roman&amp;#34; , serif&quot;&gt;(user)&lt;/span&gt;" style="rounded=0;whiteSpace=wrap;html=1;" vertex="1" parent="1">
          <mxGeometry x="310" y="450" width="120" height="60" as="geometry" />
        </mxCell>
        <mxCell id="Tf4VK9z_t_ga5ASDHCI5-6" value="&lt;span style=&quot;font-size: 10.5pt&quot;&gt;经常用户&lt;/span&gt;&lt;span lang=&quot;EN-US&quot; style=&quot;font-size: 10.5pt ; font-family: &amp;#34;times new roman&amp;#34; , serif&quot;&gt;(userSP)&lt;/span&gt;" style="rounded=0;whiteSpace=wrap;html=1;" vertex="1" parent="1">
          <mxGeometry x="640" y="450" width="120" height="60" as="geometry" />
        </mxCell>
        <mxCell id="Tf4VK9z_t_ga5ASDHCI5-7" value="&lt;span style=&quot;font-size: 10.5pt&quot;&gt;票务&lt;/span&gt;&lt;span lang=&quot;EN-US&quot; style=&quot;font-size: 10.5pt ; font-family: &amp;#34;times new roman&amp;#34; , serif&quot;&gt;(ticketService)&lt;/span&gt;" style="rhombus;whiteSpace=wrap;html=1;" vertex="1" parent="1">
          <mxGeometry x="300" y="310" width="140" height="80" as="geometry" />
        </mxCell>
        <mxCell id="Tf4VK9z_t_ga5ASDHCI5-9" value="&lt;span style=&quot;font-size: 14px&quot;&gt;注册&lt;br&gt;&lt;/span&gt;" style="rhombus;whiteSpace=wrap;html=1;" vertex="1" parent="1">
          <mxGeometry x="470" y="440" width="140" height="80" as="geometry" />
        </mxCell>
        <mxCell id="Tf4VK9z_t_ga5ASDHCI5-10" value="" style="endArrow=none;html=1;entryX=0.5;entryY=1;entryDx=0;entryDy=0;exitX=0.5;exitY=0;exitDx=0;exitDy=0;" edge="1" parent="1" source="Tf4VK9z_t_ga5ASDHCI5-7" target="Tf4VK9z_t_ga5ASDHCI5-2">
          <mxGeometry width="50" height="50" relative="1" as="geometry">
            <mxPoint x="500" y="420" as="sourcePoint" />
            <mxPoint x="550" y="370" as="targetPoint" />
          </mxGeometry>
        </mxCell>
        <mxCell id="Tf4VK9z_t_ga5ASDHCI5-11" value="" style="endArrow=none;html=1;entryX=0.5;entryY=1;entryDx=0;entryDy=0;exitX=0.5;exitY=0;exitDx=0;exitDy=0;" edge="1" parent="1" source="Tf4VK9z_t_ga5ASDHCI5-3" target="Tf4VK9z_t_ga5ASDHCI5-7">
          <mxGeometry width="50" height="50" relative="1" as="geometry">
            <mxPoint x="500" y="420" as="sourcePoint" />
            <mxPoint x="550" y="370" as="targetPoint" />
          </mxGeometry>
        </mxCell>
        <mxCell id="Tf4VK9z_t_ga5ASDHCI5-12" value="" style="endArrow=none;html=1;exitX=1;exitY=0.5;exitDx=0;exitDy=0;entryX=0;entryY=0.5;entryDx=0;entryDy=0;" edge="1" parent="1" source="Tf4VK9z_t_ga5ASDHCI5-3" target="Tf4VK9z_t_ga5ASDHCI5-9">
          <mxGeometry width="50" height="50" relative="1" as="geometry">
            <mxPoint x="500" y="420" as="sourcePoint" />
            <mxPoint x="550" y="370" as="targetPoint" />
          </mxGeometry>
        </mxCell>
        <mxCell id="Tf4VK9z_t_ga5ASDHCI5-13" value="" style="endArrow=none;html=1;exitX=1;exitY=0.5;exitDx=0;exitDy=0;entryX=0;entryY=0.5;entryDx=0;entryDy=0;" edge="1" parent="1" source="Tf4VK9z_t_ga5ASDHCI5-9" target="Tf4VK9z_t_ga5ASDHCI5-6">
          <mxGeometry width="50" height="50" relative="1" as="geometry">
            <mxPoint x="500" y="420" as="sourcePoint" />
            <mxPoint x="550" y="370" as="targetPoint" />
          </mxGeometry>
        </mxCell>
        <mxCell id="Tf4VK9z_t_ga5ASDHCI5-14" value="m" style="text;html=1;strokeColor=none;fillColor=none;align=center;verticalAlign=middle;whiteSpace=wrap;rounded=0;" vertex="1" parent="1">
          <mxGeometry x="320" y="280" width="40" height="20" as="geometry" />
        </mxCell>
        <mxCell id="Tf4VK9z_t_ga5ASDHCI5-15" value="n" style="text;html=1;align=center;verticalAlign=middle;resizable=0;points=[];autosize=1;strokeColor=none;" vertex="1" parent="1">
          <mxGeometry x="340" y="410" width="20" height="20" as="geometry" />
        </mxCell>
        <mxCell id="Tf4VK9z_t_ga5ASDHCI5-16" value="1" style="text;html=1;strokeColor=none;fillColor=none;align=center;verticalAlign=middle;whiteSpace=wrap;rounded=0;" vertex="1" parent="1">
          <mxGeometry x="430" y="450" width="40" height="20" as="geometry" />
        </mxCell>
        <mxCell id="Tf4VK9z_t_ga5ASDHCI5-17" value="1" style="text;html=1;align=center;verticalAlign=middle;resizable=0;points=[];autosize=1;strokeColor=none;" vertex="1" parent="1">
          <mxGeometry x="610" y="450" width="20" height="20" as="geometry" />
        </mxCell>
        <mxCell id="Tf4VK9z_t_ga5ASDHCI5-18" value="&lt;b&gt;&lt;u&gt;&lt;span style=&quot;font-size: 10.5pt&quot;&gt;航班编号&lt;/span&gt;&lt;span lang=&quot;EN-US&quot; style=&quot;font-size: 10.5pt ; font-family: &amp;#34;times new roman&amp;#34; , serif&quot;&gt;(airflightID)&lt;/span&gt;&lt;/u&gt;&lt;/b&gt;" style="ellipse;whiteSpace=wrap;html=1;" vertex="1" parent="1">
          <mxGeometry x="-30" y="80" width="120" height="80" as="geometry" />
        </mxCell>
        <mxCell id="Tf4VK9z_t_ga5ASDHCI5-19" value="&lt;i&gt;&lt;u&gt;&lt;span style=&quot;font-size: 10.5pt&quot;&gt;航线编号(airlineID)&lt;/span&gt;&lt;/u&gt;&lt;/i&gt;" style="ellipse;whiteSpace=wrap;html=1;" vertex="1" parent="1">
          <mxGeometry x="130" y="80" width="120" height="80" as="geometry" />
        </mxCell>
        <mxCell id="Tf4VK9z_t_ga5ASDHCI5-20" value="&lt;span style=&quot;font-size: 10.5pt&quot;&gt;起飞日期&lt;/span&gt;&lt;span lang=&quot;EN-US&quot; style=&quot;font-size: 10.5pt ; font-family: &amp;#34;times new roman&amp;#34; , serif&quot;&gt;(startTime)&lt;/span&gt;" style="ellipse;whiteSpace=wrap;html=1;" vertex="1" parent="1">
          <mxGeometry x="260" y="80" width="120" height="80" as="geometry" />
        </mxCell>
        <mxCell id="Tf4VK9z_t_ga5ASDHCI5-21" value="&lt;span style=&quot;font-size: 10.5pt&quot;&gt;到达日期&lt;/span&gt;&lt;span lang=&quot;EN-US&quot; style=&quot;font-size: 10.5pt ; font-family: &amp;#34;times new roman&amp;#34; , serif&quot;&gt;(arriveTime)&lt;/span&gt;" style="ellipse;whiteSpace=wrap;html=1;" vertex="1" parent="1">
          <mxGeometry x="390" y="80" width="120" height="80" as="geometry" />
        </mxCell>
        <mxCell id="Tf4VK9z_t_ga5ASDHCI5-22" value="&lt;span style=&quot;font-size: 10.5pt&quot;&gt;经济舱票价&lt;/span&gt;&lt;span lang=&quot;EN-US&quot; style=&quot;font-size: 10.5pt ; font-family: &amp;#34;times new roman&amp;#34; , serif&quot;&gt;(touristPrice)&lt;/span&gt;" style="ellipse;whiteSpace=wrap;html=1;" vertex="1" parent="1">
          <mxGeometry x="520" y="80" width="120" height="80" as="geometry" />
        </mxCell>
        <mxCell id="Tf4VK9z_t_ga5ASDHCI5-23" value="&lt;span style=&quot;font-size: 10.5pt&quot;&gt;商务舱票价&lt;/span&gt;&lt;span lang=&quot;EN-US&quot; style=&quot;font-size: 10.5pt ; font-family: &amp;#34;times new roman&amp;#34; , serif&quot;&gt;(bussinessPrice)&lt;/span&gt;" style="ellipse;whiteSpace=wrap;html=1;" vertex="1" parent="1">
          <mxGeometry x="650" y="80" width="120" height="80" as="geometry" />
        </mxCell>
        <mxCell id="Tf4VK9z_t_ga5ASDHCI5-25" value="" style="endArrow=none;html=1;exitX=0.5;exitY=1;exitDx=0;exitDy=0;entryX=0;entryY=0.5;entryDx=0;entryDy=0;" edge="1" parent="1" source="Tf4VK9z_t_ga5ASDHCI5-18" target="Tf4VK9z_t_ga5ASDHCI5-2">
          <mxGeometry width="50" height="50" relative="1" as="geometry">
            <mxPoint x="320" y="140" as="sourcePoint" />
            <mxPoint x="370" y="90" as="targetPoint" />
          </mxGeometry>
        </mxCell>
        <mxCell id="Tf4VK9z_t_ga5ASDHCI5-26" value="" style="endArrow=none;html=1;exitX=0.5;exitY=1;exitDx=0;exitDy=0;entryX=0;entryY=0.25;entryDx=0;entryDy=0;" edge="1" parent="1" source="Tf4VK9z_t_ga5ASDHCI5-19" target="Tf4VK9z_t_ga5ASDHCI5-2">
          <mxGeometry width="50" height="50" relative="1" as="geometry">
            <mxPoint x="320" y="140" as="sourcePoint" />
            <mxPoint x="370" y="90" as="targetPoint" />
          </mxGeometry>
        </mxCell>
        <mxCell id="Tf4VK9z_t_ga5ASDHCI5-27" value="" style="endArrow=none;html=1;exitX=0.5;exitY=1;exitDx=0;exitDy=0;entryX=0.25;entryY=0;entryDx=0;entryDy=0;" edge="1" parent="1" source="Tf4VK9z_t_ga5ASDHCI5-20" target="Tf4VK9z_t_ga5ASDHCI5-2">
          <mxGeometry width="50" height="50" relative="1" as="geometry">
            <mxPoint x="320" y="140" as="sourcePoint" />
            <mxPoint x="370" y="90" as="targetPoint" />
          </mxGeometry>
        </mxCell>
        <mxCell id="Tf4VK9z_t_ga5ASDHCI5-28" value="" style="endArrow=none;html=1;exitX=0.5;exitY=0;exitDx=0;exitDy=0;entryX=0.333;entryY=0.968;entryDx=0;entryDy=0;entryPerimeter=0;" edge="1" parent="1" source="Tf4VK9z_t_ga5ASDHCI5-2" target="Tf4VK9z_t_ga5ASDHCI5-21">
          <mxGeometry width="50" height="50" relative="1" as="geometry">
            <mxPoint x="320" y="140" as="sourcePoint" />
            <mxPoint x="370" y="90" as="targetPoint" />
          </mxGeometry>
        </mxCell>
        <mxCell id="Tf4VK9z_t_ga5ASDHCI5-29" value="" style="endArrow=none;html=1;exitX=0.75;exitY=0;exitDx=0;exitDy=0;entryX=0;entryY=1;entryDx=0;entryDy=0;" edge="1" parent="1" source="Tf4VK9z_t_ga5ASDHCI5-2" target="Tf4VK9z_t_ga5ASDHCI5-22">
          <mxGeometry width="50" height="50" relative="1" as="geometry">
            <mxPoint x="320" y="140" as="sourcePoint" />
            <mxPoint x="558" y="161" as="targetPoint" />
          </mxGeometry>
        </mxCell>
        <mxCell id="Tf4VK9z_t_ga5ASDHCI5-30" value="" style="endArrow=none;html=1;exitX=1;exitY=0.25;exitDx=0;exitDy=0;entryX=0.233;entryY=0.917;entryDx=0;entryDy=0;entryPerimeter=0;" edge="1" parent="1" source="Tf4VK9z_t_ga5ASDHCI5-2" target="Tf4VK9z_t_ga5ASDHCI5-23">
          <mxGeometry width="50" height="50" relative="1" as="geometry">
            <mxPoint x="630" y="150" as="sourcePoint" />
            <mxPoint x="680" y="100" as="targetPoint" />
          </mxGeometry>
        </mxCell>
        <mxCell id="Tf4VK9z_t_ga5ASDHCI5-31" value="&lt;b&gt;&lt;u&gt;&lt;span style=&quot;font-size: 10.5pt&quot;&gt;票号&lt;/span&gt;&lt;span lang=&quot;EN-US&quot; style=&quot;font-size: 10.5pt ; font-family: &amp;#34;times new roman&amp;#34; , serif&quot;&gt;(ticketID)&lt;/span&gt;&lt;/u&gt;&lt;/b&gt;" style="ellipse;whiteSpace=wrap;html=1;" vertex="1" parent="1">
          <mxGeometry x="150" y="230" width="120" height="80" as="geometry" />
        </mxCell>
        <mxCell id="Tf4VK9z_t_ga5ASDHCI5-32" value="&lt;i&gt;&lt;u&gt;&lt;span style=&quot;font-size: 10.5pt&quot;&gt;用户编号&lt;/span&gt;&lt;span lang=&quot;EN-US&quot; style=&quot;font-size: 10.5pt ; font-family: &amp;#34;times new roman&amp;#34; , serif&quot;&gt;(userID)&lt;/span&gt;&lt;/u&gt;&lt;/i&gt;" style="ellipse;whiteSpace=wrap;html=1;" vertex="1" parent="1">
          <mxGeometry x="150" y="320" width="120" height="80" as="geometry" />
        </mxCell>
        <mxCell id="Tf4VK9z_t_ga5ASDHCI5-33" value="&lt;i&gt;&lt;u&gt;&lt;span style=&quot;font-size: 10.5pt&quot;&gt;航班编号&lt;/span&gt;&lt;span lang=&quot;EN-US&quot; style=&quot;font-size: 10.5pt ; font-family: &amp;#34;times new roman&amp;#34; , serif&quot;&gt;(airflightID)&lt;/span&gt;&lt;/u&gt;&lt;/i&gt;" style="ellipse;whiteSpace=wrap;html=1;" vertex="1" parent="1">
          <mxGeometry x="150" y="410" width="120" height="80" as="geometry" />
        </mxCell>
        <mxCell id="Tf4VK9z_t_ga5ASDHCI5-34" value="&lt;span style=&quot;font-size: 10.5pt&quot;&gt;订票时间&lt;/span&gt;&lt;span lang=&quot;EN-US&quot; style=&quot;font-size: 10.5pt ; font-family: &amp;#34;times new roman&amp;#34; , serif&quot;&gt;(purchaseTime)&lt;/span&gt;" style="ellipse;whiteSpace=wrap;html=1;" vertex="1" parent="1">
          <mxGeometry x="470" y="260" width="120" height="80" as="geometry" />
        </mxCell>
        <mxCell id="Tf4VK9z_t_ga5ASDHCI5-35" value="&lt;span style=&quot;font-size: 10.5pt&quot;&gt;座位种类&lt;/span&gt;&lt;span lang=&quot;EN-US&quot; style=&quot;font-size: 10.5pt ; font-family: &amp;#34;times new roman&amp;#34; , serif&quot;&gt;(seatType)&lt;/span&gt;" style="ellipse;whiteSpace=wrap;html=1;" vertex="1" parent="1">
          <mxGeometry x="470" y="350" width="120" height="80" as="geometry" />
        </mxCell>
        <mxCell id="Tf4VK9z_t_ga5ASDHCI5-36" value="" style="endArrow=none;html=1;exitX=1;exitY=0.5;exitDx=0;exitDy=0;entryX=0;entryY=0;entryDx=0;entryDy=0;" edge="1" parent="1" source="Tf4VK9z_t_ga5ASDHCI5-31" target="Tf4VK9z_t_ga5ASDHCI5-7">
          <mxGeometry width="50" height="50" relative="1" as="geometry">
            <mxPoint x="320" y="350" as="sourcePoint" />
            <mxPoint x="370" y="300" as="targetPoint" />
          </mxGeometry>
        </mxCell>
        <mxCell id="Tf4VK9z_t_ga5ASDHCI5-37" value="" style="endArrow=none;html=1;exitX=1;exitY=0.5;exitDx=0;exitDy=0;entryX=0;entryY=0.5;entryDx=0;entryDy=0;" edge="1" parent="1" source="Tf4VK9z_t_ga5ASDHCI5-32" target="Tf4VK9z_t_ga5ASDHCI5-7">
          <mxGeometry width="50" height="50" relative="1" as="geometry">
            <mxPoint x="320" y="350" as="sourcePoint" />
            <mxPoint x="370" y="300" as="targetPoint" />
          </mxGeometry>
        </mxCell>
        <mxCell id="Tf4VK9z_t_ga5ASDHCI5-38" value="" style="endArrow=none;html=1;exitX=1;exitY=0.5;exitDx=0;exitDy=0;entryX=0;entryY=1;entryDx=0;entryDy=0;" edge="1" parent="1" source="Tf4VK9z_t_ga5ASDHCI5-33" target="Tf4VK9z_t_ga5ASDHCI5-7">
          <mxGeometry width="50" height="50" relative="1" as="geometry">
            <mxPoint x="320" y="350" as="sourcePoint" />
            <mxPoint x="370" y="300" as="targetPoint" />
          </mxGeometry>
        </mxCell>
        <mxCell id="Tf4VK9z_t_ga5ASDHCI5-39" value="" style="endArrow=none;html=1;entryX=0;entryY=0.5;entryDx=0;entryDy=0;exitX=1;exitY=0;exitDx=0;exitDy=0;" edge="1" parent="1" source="Tf4VK9z_t_ga5ASDHCI5-7" target="Tf4VK9z_t_ga5ASDHCI5-34">
          <mxGeometry width="50" height="50" relative="1" as="geometry">
            <mxPoint x="320" y="350" as="sourcePoint" />
            <mxPoint x="370" y="300" as="targetPoint" />
          </mxGeometry>
        </mxCell>
        <mxCell id="Tf4VK9z_t_ga5ASDHCI5-40" value="" style="endArrow=none;html=1;entryX=0;entryY=0.5;entryDx=0;entryDy=0;exitX=1;exitY=1;exitDx=0;exitDy=0;" edge="1" parent="1" source="Tf4VK9z_t_ga5ASDHCI5-7" target="Tf4VK9z_t_ga5ASDHCI5-35">
          <mxGeometry width="50" height="50" relative="1" as="geometry">
            <mxPoint x="320" y="350" as="sourcePoint" />
            <mxPoint x="370" y="300" as="targetPoint" />
          </mxGeometry>
        </mxCell>
        <mxCell id="Tf4VK9z_t_ga5ASDHCI5-42" value="&lt;b&gt;&lt;u&gt;&lt;span style=&quot;font-size: 10.5pt&quot;&gt;身份证号&lt;/span&gt;&lt;span lang=&quot;EN-US&quot; style=&quot;font-size: 10.5pt ; font-family: &amp;#34;times new roman&amp;#34; , serif&quot;&gt;(identityNum)&lt;/span&gt;&lt;/u&gt;&lt;/b&gt;" style="ellipse;whiteSpace=wrap;html=1;" vertex="1" parent="1">
          <mxGeometry x="170" y="580" width="120" height="80" as="geometry" />
        </mxCell>
        <mxCell id="Tf4VK9z_t_ga5ASDHCI5-43" value="&lt;span style=&quot;font-size: 10.5pt&quot;&gt;姓名&lt;/span&gt;&lt;span lang=&quot;EN-US&quot; style=&quot;font-size: 10.5pt ; font-family: &amp;#34;times new roman&amp;#34; , serif&quot;&gt;(userName)&lt;/span&gt;" style="ellipse;whiteSpace=wrap;html=1;" vertex="1" parent="1">
          <mxGeometry x="310" y="580" width="120" height="80" as="geometry" />
        </mxCell>
        <mxCell id="Tf4VK9z_t_ga5ASDHCI5-44" value="&lt;p class=&quot;MsoNormal&quot;&gt;&lt;span&gt;手机号码&lt;/span&gt;&lt;span lang=&quot;EN-US&quot;&gt;(mobileNum)&lt;/span&gt;&lt;/p&gt;" style="ellipse;whiteSpace=wrap;html=1;" vertex="1" parent="1">
          <mxGeometry x="450" y="580" width="120" height="80" as="geometry" />
        </mxCell>
        <mxCell id="Tf4VK9z_t_ga5ASDHCI5-45" value="" style="endArrow=none;html=1;exitX=0.5;exitY=0;exitDx=0;exitDy=0;entryX=0.25;entryY=1;entryDx=0;entryDy=0;" edge="1" parent="1" source="Tf4VK9z_t_ga5ASDHCI5-42" target="Tf4VK9z_t_ga5ASDHCI5-3">
          <mxGeometry width="50" height="50" relative="1" as="geometry">
            <mxPoint x="320" y="520" as="sourcePoint" />
            <mxPoint x="370" y="470" as="targetPoint" />
          </mxGeometry>
        </mxCell>
        <mxCell id="Tf4VK9z_t_ga5ASDHCI5-46" value="" style="endArrow=none;html=1;exitX=0.5;exitY=0;exitDx=0;exitDy=0;" edge="1" parent="1" source="Tf4VK9z_t_ga5ASDHCI5-43">
          <mxGeometry width="50" height="50" relative="1" as="geometry">
            <mxPoint x="320" y="520" as="sourcePoint" />
            <mxPoint x="370" y="510" as="targetPoint" />
          </mxGeometry>
        </mxCell>
        <mxCell id="Tf4VK9z_t_ga5ASDHCI5-47" value="" style="endArrow=none;html=1;exitX=0.5;exitY=0;exitDx=0;exitDy=0;entryX=0.75;entryY=1;entryDx=0;entryDy=0;" edge="1" parent="1" source="Tf4VK9z_t_ga5ASDHCI5-44" target="Tf4VK9z_t_ga5ASDHCI5-3">
          <mxGeometry width="50" height="50" relative="1" as="geometry">
            <mxPoint x="320" y="520" as="sourcePoint" />
            <mxPoint x="370" y="470" as="targetPoint" />
          </mxGeometry>
        </mxCell>
        <mxCell id="Tf4VK9z_t_ga5ASDHCI5-48" value="&lt;span style=&quot;font-size: 10.5pt&quot;&gt;身份等级&lt;/span&gt;&lt;span lang=&quot;EN-US&quot; style=&quot;font-size: 10.5pt ; font-family: &amp;#34;times new roman&amp;#34; , serif&quot;&gt;(level)&lt;/span&gt;" style="ellipse;whiteSpace=wrap;html=1;" vertex="1" parent="1">
          <mxGeometry x="740" y="610" width="120" height="80" as="geometry" />
        </mxCell>
        <mxCell id="Tf4VK9z_t_ga5ASDHCI5-49" value="&lt;span style=&quot;font-size: 10.5pt&quot;&gt;密码&lt;/span&gt;&lt;span lang=&quot;EN-US&quot; style=&quot;font-size: 10.5pt ; font-family: &amp;#34;times new roman&amp;#34; , serif&quot;&gt;(password)&amp;nbsp;&lt;/span&gt;" style="ellipse;whiteSpace=wrap;html=1;" vertex="1" parent="1">
          <mxGeometry x="600" y="630" width="120" height="80" as="geometry" />
        </mxCell>
        <mxCell id="Tf4VK9z_t_ga5ASDHCI5-50" value="&lt;span style=&quot;font-size: 10.5pt&quot;&gt;里程积分&lt;/span&gt;&lt;span lang=&quot;EN-US&quot; style=&quot;font-size: 10.5pt ; font-family: &amp;#34;times new roman&amp;#34; , serif&quot;&gt;(point)&lt;/span&gt;" style="ellipse;whiteSpace=wrap;html=1;" vertex="1" parent="1">
          <mxGeometry x="850" y="530" width="120" height="80" as="geometry" />
        </mxCell>
        <mxCell id="Tf4VK9z_t_ga5ASDHCI5-51" value="&lt;span style=&quot;font-size: 10.5pt&quot;&gt;身份证号&lt;/span&gt;&lt;span lang=&quot;EN-US&quot; style=&quot;font-size: 10.5pt ; font-family: &amp;#34;times new roman&amp;#34; , serif&quot;&gt;(identityNum)&lt;/span&gt;" style="ellipse;whiteSpace=wrap;html=1;" vertex="1" parent="1">
          <mxGeometry x="850" y="350" width="120" height="80" as="geometry" />
        </mxCell>
        <mxCell id="Tf4VK9z_t_ga5ASDHCI5-52" value="&lt;span style=&quot;font-size: 10.5pt&quot;&gt;姓名&lt;/span&gt;&lt;span lang=&quot;EN-US&quot; style=&quot;font-size: 10.5pt ; font-family: &amp;#34;times new roman&amp;#34; , serif&quot;&gt;(userName)&lt;/span&gt;" style="ellipse;whiteSpace=wrap;html=1;" vertex="1" parent="1">
          <mxGeometry x="720" y="340" width="120" height="80" as="geometry" />
        </mxCell>
        <mxCell id="Tf4VK9z_t_ga5ASDHCI5-53" value="&lt;b&gt;&lt;u&gt;&lt;span style=&quot;font-size: 10.5pt&quot;&gt;用户编号&lt;/span&gt;&lt;span lang=&quot;EN-US&quot; style=&quot;font-size: 10.5pt ; font-family: &amp;#34;times new roman&amp;#34; , serif&quot;&gt;(userID)&lt;/span&gt;&lt;/u&gt;&lt;/b&gt;" style="ellipse;whiteSpace=wrap;html=1;" vertex="1" parent="1">
          <mxGeometry x="590" y="310" width="120" height="80" as="geometry" />
        </mxCell>
        <mxCell id="Tf4VK9z_t_ga5ASDHCI5-55" value="&lt;span style=&quot;font-size: 10.5pt&quot;&gt;手机号码&lt;/span&gt;&lt;span lang=&quot;EN-US&quot; style=&quot;font-size: 10.5pt ; font-family: &amp;#34;times new roman&amp;#34; , serif&quot;&gt;(mobileNum)&lt;/span&gt;" style="ellipse;whiteSpace=wrap;html=1;" vertex="1" parent="1">
          <mxGeometry x="850" y="440" width="120" height="80" as="geometry" />
        </mxCell>
        <mxCell id="Tf4VK9z_t_ga5ASDHCI5-56" value="" style="endArrow=none;html=1;entryX=0.5;entryY=1;entryDx=0;entryDy=0;exitX=0.5;exitY=0;exitDx=0;exitDy=0;" edge="1" parent="1" source="Tf4VK9z_t_ga5ASDHCI5-6" target="Tf4VK9z_t_ga5ASDHCI5-53">
          <mxGeometry width="50" height="50" relative="1" as="geometry">
            <mxPoint x="690" y="510" as="sourcePoint" />
            <mxPoint x="740" y="460" as="targetPoint" />
          </mxGeometry>
        </mxCell>
        <mxCell id="Tf4VK9z_t_ga5ASDHCI5-57" value="" style="endArrow=none;html=1;entryX=0.5;entryY=1;entryDx=0;entryDy=0;exitX=0.75;exitY=0;exitDx=0;exitDy=0;" edge="1" parent="1" source="Tf4VK9z_t_ga5ASDHCI5-6" target="Tf4VK9z_t_ga5ASDHCI5-52">
          <mxGeometry width="50" height="50" relative="1" as="geometry">
            <mxPoint x="690" y="510" as="sourcePoint" />
            <mxPoint x="740" y="460" as="targetPoint" />
          </mxGeometry>
        </mxCell>
        <mxCell id="Tf4VK9z_t_ga5ASDHCI5-58" value="" style="endArrow=none;html=1;entryX=0;entryY=1;entryDx=0;entryDy=0;exitX=1;exitY=0.25;exitDx=0;exitDy=0;" edge="1" parent="1" source="Tf4VK9z_t_ga5ASDHCI5-6" target="Tf4VK9z_t_ga5ASDHCI5-51">
          <mxGeometry width="50" height="50" relative="1" as="geometry">
            <mxPoint x="690" y="510" as="sourcePoint" />
            <mxPoint x="740" y="460" as="targetPoint" />
          </mxGeometry>
        </mxCell>
        <mxCell id="Tf4VK9z_t_ga5ASDHCI5-59" value="" style="endArrow=none;html=1;entryX=0;entryY=0.5;entryDx=0;entryDy=0;exitX=1;exitY=0.5;exitDx=0;exitDy=0;" edge="1" parent="1" source="Tf4VK9z_t_ga5ASDHCI5-6" target="Tf4VK9z_t_ga5ASDHCI5-55">
          <mxGeometry width="50" height="50" relative="1" as="geometry">
            <mxPoint x="690" y="510" as="sourcePoint" />
            <mxPoint x="740" y="460" as="targetPoint" />
          </mxGeometry>
        </mxCell>
        <mxCell id="Tf4VK9z_t_ga5ASDHCI5-60" value="" style="endArrow=none;html=1;entryX=0;entryY=0.5;entryDx=0;entryDy=0;exitX=1;exitY=1;exitDx=0;exitDy=0;" edge="1" parent="1" source="Tf4VK9z_t_ga5ASDHCI5-6" target="Tf4VK9z_t_ga5ASDHCI5-50">
          <mxGeometry width="50" height="50" relative="1" as="geometry">
            <mxPoint x="690" y="510" as="sourcePoint" />
            <mxPoint x="740" y="460" as="targetPoint" />
          </mxGeometry>
        </mxCell>
        <mxCell id="Tf4VK9z_t_ga5ASDHCI5-61" value="" style="endArrow=none;html=1;exitX=0.5;exitY=0;exitDx=0;exitDy=0;entryX=0.75;entryY=1;entryDx=0;entryDy=0;" edge="1" parent="1" source="Tf4VK9z_t_ga5ASDHCI5-48" target="Tf4VK9z_t_ga5ASDHCI5-6">
          <mxGeometry width="50" height="50" relative="1" as="geometry">
            <mxPoint x="690" y="510" as="sourcePoint" />
            <mxPoint x="740" y="460" as="targetPoint" />
          </mxGeometry>
        </mxCell>
        <mxCell id="Tf4VK9z_t_ga5ASDHCI5-62" value="" style="endArrow=none;html=1;exitX=0.5;exitY=0;exitDx=0;exitDy=0;entryX=0.5;entryY=1;entryDx=0;entryDy=0;" edge="1" parent="1" source="Tf4VK9z_t_ga5ASDHCI5-49" target="Tf4VK9z_t_ga5ASDHCI5-6">
          <mxGeometry width="50" height="50" relative="1" as="geometry">
            <mxPoint x="690" y="510" as="sourcePoint" />
            <mxPoint x="740" y="460" as="targetPoint" />
          </mxGeometry>
        </mxCell>
      </root>
    </mxGraphModel>
  </diagram>
</mxfile>
